{
  "accessors": [
    {
      "bufferView": 0,
      "byteOffset": 0,
      "componentType": 5126,
      "normalized": false,
      "count": 270776,
      "type": "VEC3",
      "max": [
        0.7789838731448919,
        0.4562860131263733,
        0.9622005705738832
      ],
      "min": [
        -1.2069134778740847,
        -0.2899525463581085,
        -1.1601950586601686
      ]
    },
    {
      "bufferView": 1,
      "byteOffset": 0,
      "componentType": 5125,
      "normalized": false,
      "count": 1364988,
      "type": "SCALAR"
    },
    {
      "bufferView": 2,
      "byteOffset": 0,
      "componentType": 5126,
      "normalized": false,
      "count": 270776,
      "type": "VEC2"
    }
  ],
  "asset": {
    "generator": "Polycam",
    "version": "2.0"
  },
  "bufferViews": [
    {
      "buffer": 0,
      "byteOffset": 0,
      "byteLength": 3249312
    },
    {
      "buffer": 0,
      "byteOffset": 3249312,
      "byteLength": 5459952
    },
    {
      "buffer": 0,
      "byteOffset": 8709264,
      "byteLength": 2166208
    },
    {
      "buffer": 0,
      "byteOffset": 10875472,
      "byteLength": 18962348
    }
  ],
  "buffers": [
    {
      "uri": "dwayne.bin",
      "byteLength": 29837820
    }
  ],
  "images": [
    {
      "mimeType": "image/jpeg",
      "bufferView": 3
    }
  ],
  "materials": [
    {
      "pbrMetallicRoughness": {
        "baseColorFactor": [
          1.0,
          1.0,
          1.0,
          1.0
        ],
        "metallicFactor": 0.0,
        "roughnessFactor": 1.0,
        "baseColorTexture": {
          "index": 0,
          "texCoord": 0
        }
      },
      "emissiveFactor": [
        0.0,
        0.0,
        0.0
      ],
      "alphaMode": "OPAQUE",
      "alphaCutoff": 0.5,
      "doubleSided": false
    }
  ],
  "meshes": [
    {
      "primitives": [
        {
          "attributes": {
            "POSITION": 0,
            "TEXCOORD_0": 2
          },
          "indices": 1,
          "mode": 4,
          "material": 0
        }
      ]
    }
  ],
  "nodes": [
    {
      "mesh": 0
    }
  ],
  "scene": 0,
  "scenes": [
    {
      "nodes": [
        0
      ]
    }
  ],
  "textures": [
    {
      "source": 0
    }
  ]
}